<svg width="512" height="512" viewBox="0 0 512 512" xmlns="http://www.w3.org/2000/svg">
  <!-- Background -->
  <rect width="512" height="512" rx="96" fill="#09090b"/>
  
  <g transform="translate(56, 56)">
    <!-- Popcorn bucket -->
    <path d="M100 160 L80 360 L320 360 L300 160 Z" fill="url(#bucketGradient)"/>
    
    <!-- Bucket stripes -->
    <path d="M115 180 L100 340" stroke="#dc2626" stroke-width="12" stroke-linecap="round"/>
    <path d="M160 165 L150 350" stroke="#dc2626" stroke-width="12" stroke-linecap="round"/>
    <path d="M240 165 L250 350" stroke="#dc2626" stroke-width="12" stroke-linecap="round"/>
    <path d="M285 180 L300 340" stroke="#dc2626" stroke-width="12" stroke-linecap="round"/>
    
    <!-- Bucket rim -->
    <ellipse cx="200" cy="160" rx="110" ry="20" fill="#fbbf24"/>
    
    <!-- Popcorn pieces -->
    <circle cx="140" cy="100" r="35" fill="#fef3c7"/>
    <circle cx="200" cy="80" r="40" fill="#fef9c3"/>
    <circle cx="260" cy="100" r="35" fill="#fef3c7"/>
    <circle cx="170" cy="60" r="30" fill="#fefce8"/>
    <circle cx="230" cy="55" r="32" fill="#fef9c3"/>
    <circle cx="200" cy="120" r="28" fill="#fef3c7"/>
    <circle cx="130" cy="140" r="25" fill="#fefce8"/>
    <circle cx="270" cy="140" r="25" fill="#fefce8"/>
    <circle cx="155" cy="130" r="22" fill="#fef9c3"/>
    <circle cx="245" cy="125" r="24" fill="#fef9c3"/>
    
    <!-- Small highlight details -->
    <circle cx="185" cy="70" r="8" fill="#fbbf24" opacity="0.4"/>
    <circle cx="220" cy="95" r="6" fill="#fbbf24" opacity="0.4"/>
    <circle cx="150" cy="95" r="5" fill="#fbbf24" opacity="0.4"/>
  </g>
  
  <defs>
    <linearGradient id="bucketGradient" x1="136" y1="216" x2="376" y2="416">
      <stop offset="0%" stop-color="#fbbf24"/>
      <stop offset="100%" stop-color="#f59e0b"/>
    </linearGradient>
  </defs>
</svg>
